<?xml version="1.0" standalone="no"?>
<!DOCTYPE svg PUBLIC "-//W3C//DTD SVG 20010904//EN"
 "http://www.w3.org/TR/2001/REC-SVG-20010904/DTD/svg10.dtd">
<svg version="1.0" xmlns="http://www.w3.org/2000/svg"
 width="500.000000pt" height="500.000000pt" viewBox="0 0 500.000000 500.000000"
 preserveAspectRatio="xMidYMid meet">

<g transform="translate(0.000000,500.000000) scale(0.100000,-0.100000)"
fill="#000000" stroke="none">
<path d="M0 2500 l0 -2500 2475 0 2475 0 0 2500 0 2500 -2475 0 -2475 0 0
-2500z m2277 2008 c131 -182 165 -241 159 -276 -4 -27 4 -47 45 -113 76 -124
116 -169 151 -169 50 0 105 -36 135 -87 15 -27 30 -50 33 -53 30 -24 110 -138
137 -196 44 -92 50 -134 29 -182 l-17 -37 49 -85 c38 -67 54 -86 75 -90 27 -5
75 -68 112 -147 8 -18 35 -73 59 -122 78 -159 79 -184 10 -247 -30 -28 -34
-37 -33 -80 2 -77 10 -97 47 -106 26 -7 43 -24 77 -77 63 -97 65 -112 18 -148
-94 -73 -214 -128 -257 -118 -13 4 -32 -3 -50 -18 l-28 -23 20 -74 c11 -41 23
-104 27 -140 4 -36 16 -85 26 -109 24 -54 24 -58 0 -66 -20 -6 -85 23 -146 64
-45 31 -13 25 56 -10 34 -17 63 -28 66 -26 2 3 0 22 -6 43 -5 22 -12 64 -16
94 -17 157 -75 304 -152 389 l-41 46 -79 -42 c-43 -23 -104 -51 -135 -63 -32
-12 -58 -27 -58 -33 0 -7 16 -22 36 -35 61 -40 108 -133 129 -254 3 -22 2 -38
-4 -38 -5 0 -12 18 -16 40 -8 49 -29 52 -94 15 -44 -26 -77 -33 -66 -15 4 6
27 21 53 34 82 43 86 47 73 89 -19 58 -32 63 -98 36 -32 -12 -106 -46 -165
-76 -59 -29 -113 -53 -120 -53 -16 0 208 119 274 146 27 10 48 24 48 31 0 18
-55 53 -84 53 -31 0 -246 -108 -298 -150 -20 -17 -39 -26 -42 -21 -3 4 14 21
37 38 53 37 331 182 415 217 59 23 166 85 302 175 99 65 110 71 110 60 0 -8
-166 -122 -194 -133 -6 -2 4 -19 23 -39 l33 -35 45 19 c24 10 71 35 104 54 60
35 79 42 79 28 0 -9 -129 -83 -177 -102 -18 -8 -33 -19 -33 -25 0 -7 14 -33
30 -59 20 -33 34 -45 43 -40 7 4 37 24 67 44 30 20 81 51 112 69 61 36 108 75
108 90 0 5 -20 32 -45 60 -60 68 -68 85 -74 163 l-6 67 -50 -35 c-27 -19 -72
-50 -100 -70 -27 -19 -68 -40 -90 -46 -39 -11 -157 -72 -285 -149 -36 -22
-103 -60 -150 -86 -47 -25 -110 -61 -140 -79 -56 -33 -295 -155 -305 -155 -3
0 -5 4 -5 8 0 4 37 26 83 47 45 22 132 69 192 104 61 35 125 70 143 78 18 7
84 44 145 82 62 37 161 96 221 131 116 68 164 118 206 213 28 63 50 169 50
242 0 66 -32 199 -54 224 -7 9 -29 45 -47 80 -19 35 -70 118 -114 185 -96 145
-93 144 -229 62 -104 -63 -148 -75 -264 -76 -94 0 -142 18 -186 70 -40 48 -36
100 13 164 66 88 117 133 231 207 60 39 110 73 110 76 0 8 -120 198 -155 246
-22 30 -56 54 -130 93 -160 85 -260 101 -415 68 -119 -25 -132 -30 -329 -142
-358 -202 -591 -346 -591 -364 0 -5 39 -70 86 -146 48 -75 108 -173 134 -217
25 -44 63 -105 83 -136 79 -123 323 -530 375 -624 30 -55 73 -127 96 -160 24
-33 91 -141 151 -240 59 -99 115 -190 123 -202 9 -15 10 -23 3 -23 -12 0 -27
22 -141 215 -46 77 -104 172 -130 210 -27 39 -74 118 -106 175 -31 58 -92 161
-134 230 -42 69 -94 154 -115 190 -21 36 -88 144 -148 240 -60 96 -134 216
-164 265 -128 207 -134 215 -161 215 -59 0 -150 -96 -177 -187 -29 -96 -14
-162 65 -278 15 -22 50 -86 78 -142 28 -56 68 -128 90 -160 22 -32 76 -132
121 -222 86 -172 231 -407 340 -551 148 -195 182 -242 276 -380 54 -80 117
-170 141 -201 l43 -56 -61 -7 c-108 -11 -189 -7 -252 14 -34 10 -87 24 -118
30 -48 9 -65 19 -111 63 -30 29 -81 67 -113 84 -66 36 -92 61 -187 184 -36 47
-100 126 -141 174 -92 107 -96 118 -33 91 36 -15 93 -74 109 -115 9 -22 12
-23 15 -8 3 10 -7 36 -21 57 -31 48 -32 50 -6 50 59 0 242 -152 258 -214 6
-22 26 -42 73 -74 83 -56 114 -87 134 -129 13 -26 21 -33 36 -28 27 9 129 -19
220 -60 78 -36 109 -43 109 -25 0 6 -7 10 -15 10 -9 0 -38 11 -65 25 -27 14
-95 38 -151 54 -93 27 -108 35 -148 77 -25 26 -71 64 -101 84 -43 29 -63 52
-89 100 -36 70 -35 90 7 90 65 0 158 -88 198 -189 12 -30 24 -43 43 -48 43
-10 155 -72 206 -114 46 -38 79 -51 69 -26 -5 13 -67 55 -144 97 -72 40 -88
54 -114 101 -45 78 -28 106 43 69 23 -11 41 -18 41 -15 0 3 -53 76 -119 163
-65 86 -140 191 -166 232 -26 41 -66 102 -88 134 -22 33 -76 132 -120 220 -44
89 -109 208 -145 265 -35 57 -78 133 -93 167 -16 35 -51 97 -78 139 -27 41
-55 92 -61 111 -32 96 23 244 118 321 31 25 63 43 78 43 14 0 55 20 92 43 179
117 181 118 407 247 135 78 148 85 260 148 50 27 106 63 125 79 77 65 361 220
406 222 29 1 38 -7 91 -81z m-261 -580 c-53 -122 -76 -209 -76 -294 0 -49 6
-72 32 -120 41 -77 53 -91 97 -105 144 -47 159 -59 126 -103 -22 -29 -18 -55
10 -66 14 -5 25 -12 25 -15 0 -20 -54 -94 -78 -105 -23 -11 -24 -14 -9 -18 21
-4 63 31 73 60 4 14 15 18 49 18 39 0 45 -3 64 -36 24 -40 18 -39 128 -18 23
4 35 1 47 -13 55 -63 55 -63 109 -63 30 0 75 6 100 14 39 12 47 12 47 0 0 -20
-127 -118 -205 -157 -149 -74 -272 -84 -451 -38 -94 24 -123 36 -187 80 -104
72 -201 175 -237 253 -29 64 -60 209 -60 283 0 52 41 209 68 260 23 45 117
146 176 191 55 41 190 113 194 104 2 -5 -17 -55 -42 -112z m-999 -299 c32 -55
79 -133 106 -174 49 -77 53 -85 38 -85 -5 0 -35 44 -67 98 -31 53 -81 137
-111 185 -29 49 -53 91 -53 94 0 18 36 -31 87 -118z m278 -471 c51 -84 51 -85
31 -68 -18 14 -76 108 -76 123 0 15 8 5 45 -55z m171 -269 c14 -22 23 -43 21
-46 -7 -6 -57 61 -57 75 0 21 9 13 36 -29z m69 -139 c3 -5 1 -10 -4 -10 -6 0
-11 5 -11 10 0 6 2 10 4 10 3 0 8 -4 11 -10z m183 -285 c115 -174 126 -194
116 -203 -4 -4 -9 -1 -11 6 -3 7 -48 77 -100 155 -103 154 -130 201 -114 196
5 -2 54 -72 109 -154z m1402 -33 c0 -10 -141 -85 -147 -78 -4 4 43 34 112 70
36 18 35 18 35 8z m-38 -169 c-29 -14 -56 -22 -59 -19 -7 7 76 45 97 44 8 0
-9 -11 -38 -25z m-1927 -47 c12 -8 16 -19 11 -31 -6 -17 -7 -17 -26 0 -20 18
-27 45 -12 45 5 0 17 -6 27 -14z m755 -68 c0 -14 -18 -9 -24 8 -11 28 -6 39 9
20 8 -11 15 -23 15 -28z m-208 3 c25 -16 65 -46 87 -66 23 -21 41 -31 41 -24
0 8 -16 27 -35 42 -50 40 -45 51 18 43 70 -9 140 -43 210 -100 36 -29 74 -50
100 -56 23 -5 88 -25 144 -44 66 -23 138 -40 200 -47 552 -60 626 -124 703
-610 17 -107 36 -212 41 -233 l11 -39 -85 -86 c-73 -73 -84 -89 -77 -108 8
-19 19 -22 107 -28 118 -8 123 -9 123 -33 0 -24 67 -313 81 -350 6 -15 17 -51
24 -81 18 -65 6 -93 -52 -134 -58 -40 -101 -55 -228 -77 -99 -18 -124 -20
-173 -10 -115 24 -152 62 -152 157 0 24 -9 128 -20 230 -12 102 -19 187 -16
190 2 3 57 -11 122 -31 110 -34 118 -35 130 -18 7 9 12 21 11 26 -3 8 -113 43
-234 76 -38 9 -43 14 -43 39 0 25 10 33 118 91 64 35 119 64 120 66 8 6 -10
44 -21 44 -7 0 -59 -27 -117 -60 l-105 -59 -21 127 c-31 181 -26 174 -153 211
-119 36 -437 101 -611 126 -231 32 -262 43 -540 185 -82 42 -165 102 -329 238
-42 34 -131 101 -198 148 -117 82 -150 114 -100 98 50 -16 103 -42 116 -58 17
-20 31 -21 31 -2 0 8 -17 24 -37 36 -31 18 -34 23 -21 31 30 17 117 -19 167
-69 29 -29 81 -64 137 -91 62 -31 107 -62 146 -102 49 -48 64 -58 105 -64 26
-3 82 -18 123 -32 70 -23 84 -25 195 -19 115 6 148 12 332 52 l83 19 67 -66
c68 -65 113 -99 133 -99 21 0 9 18 -20 30 -17 7 -65 46 -108 87 -42 41 -111
98 -152 125 -41 28 -82 59 -90 68 -8 10 -39 25 -69 35 -29 10 -67 30 -85 46
l-31 29 25 21 c24 20 24 21 3 15 -13 -3 -31 -9 -42 -12 -13 -4 -37 13 -91 68
-39 40 -79 83 -87 95 -33 50 20 58 89 14z m853 -17 c-31 -24 -75 -45 -75 -36
0 9 70 52 85 51 6 0 1 -7 -10 -15z m-1128 -25 c12 -12 6 -49 -8 -49 -9 0 -29
33 -29 49 0 14 23 14 37 0z m1028 -29 c-3 -5 -12 -10 -18 -10 -7 0 -6 4 3 10
19 12 23 12 15 0z m165 -70 c0 -5 -5 -10 -11 -10 -5 0 -46 -18 -91 -40 -83
-42 -115 -48 -55 -11 36 22 136 69 150 70 4 1 7 -3 7 -9z m-725 -224 c-5 -48
-3 -70 9 -94 14 -27 14 -31 0 -36 -28 -11 -44 81 -28 163 12 58 26 33 19 -33z
m72 14 c14 -11 36 -20 49 -20 21 0 24 -5 24 -34 0 -44 -9 -66 -26 -66 -17 0
-84 42 -84 53 0 12 10 8 37 -13 34 -26 43 -25 43 4 0 17 -12 33 -40 53 -22 15
-40 31 -40 36 0 12 10 8 37 -13z m1282 -887 c18 -63 17 -63 -56 -63 l-67 0 49
50 c27 28 53 50 57 50 4 0 12 -17 17 -37z"/>
<path d="M2080 4522 c-110 -55 -270 -151 -270 -164 0 -10 -1 -11 67 7 126 33
235 15 399 -65 67 -33 124 -60 128 -60 25 0 -36 112 -120 220 -24 30 -53 67
-64 83 -12 15 -27 27 -33 26 -7 0 -55 -22 -107 -47z"/>
<path d="M2590 3917 c-133 -70 -292 -201 -357 -294 -66 -93 20 -183 174 -183
100 1 147 15 255 76 110 63 163 76 204 49 20 -13 24 -22 20 -42 -5 -16 0 -36
14 -59 24 -38 32 -41 50 -19 31 37 -15 169 -96 273 -27 35 -65 87 -84 115 -59
86 -121 115 -180 84z m70 -16 c0 -8 -102 -51 -123 -51 -29 0 48 38 121 59 1 1
2 -3 2 -8z m-195 -101 c-3 -5 -11 -10 -16 -10 -6 0 -7 5 -4 10 3 6 11 10 16
10 6 0 7 -4 4 -10z m25 -106 c38 -26 50 -45 50 -81 0 -59 -65 -104 -127 -88
-15 3 -42 22 -60 41 -47 51 -43 101 12 132 29 17 97 14 125 -4z m-173 -21 c-9
-9 -20 -13 -24 -9 -4 4 1 14 11 22 25 18 35 8 13 -13z m548 -23 c3 -5 -1 -10
-9 -10 -9 0 -16 5 -16 10 0 6 4 10 9 10 6 0 13 -4 16 -10z m-90 -19 c-8 -15
-115 -74 -122 -68 -4 5 34 32 92 65 25 14 38 15 30 3z m-515 -67 c0 -14 -4
-23 -10 -19 -5 3 -10 15 -10 26 0 10 5 19 10 19 6 0 10 -12 10 -26z m300 -68
c-14 -8 -29 -12 -33 -9 -12 8 14 23 38 22 18 0 17 -1 -5 -13z m-160 -6 c11 -7
6 -10 -22 -10 -20 0 -40 5 -43 10 -8 13 45 13 65 0z"/>
<path d="M2377 3678 c-9 -7 -21 -26 -27 -43 -11 -28 -9 -32 24 -62 57 -52 121
-39 145 28 10 28 8 34 -18 60 -23 22 -39 29 -68 29 -22 0 -47 -6 -56 -12z"/>
<path d="M2842 3549 c2 -7 10 -15 17 -17 8 -3 12 1 9 9 -2 7 -10 15 -17 17 -8
3 -12 -1 -9 -9z"/>
<path d="M3096 3143 c2 -10 11 -45 19 -78 36 -144 -2 -349 -84 -455 -37 -48
-44 -60 -32 -60 15 0 247 177 265 202 24 34 20 67 -22 154 -21 43 -44 95 -52
114 -15 41 -80 140 -91 140 -4 0 -5 -8 -3 -17z"/>
<path d="M3331 2336 c-12 -13 -60 -45 -107 -71 -79 -45 -101 -65 -70 -65 7 0
44 15 82 34 77 39 144 100 128 116 -7 7 -18 2 -33 -14z"/>
<path d="M1830 3434 c-44 -43 -78 -79 -76 -82 3 -2 21 9 41 26 19 17 60 47 90
67 53 33 72 65 40 65 -8 0 -51 -34 -95 -76z"/>
<path d="M1966 3405 c5 -21 -1 -28 -40 -53 -26 -17 -60 -35 -76 -42 -17 -7
-30 -16 -30 -21 0 -13 37 -11 45 2 4 6 13 8 21 5 8 -3 14 1 14 9 0 20 19 29
34 16 15 -13 27 -5 20 14 -8 19 13 27 37 15 24 -14 40 -4 19 11 -12 8 -12 12
-2 16 10 4 8 11 -9 29 -29 31 -41 31 -33 -1z"/>
<path d="M2131 3268 c-7 -20 3 -39 13 -27 11 13 16 49 6 49 -6 0 -14 -10 -19
-22z"/>
<path d="M2085 3261 c-3 -11 -1 -29 5 -41 13 -25 35 -27 25 -2 -4 9 -8 25 -9
34 -3 27 -14 32 -21 9z"/>
</g>
</svg>
